<svg version="1.2" xmlns="http://www.w3.org/2000/svg" viewBox="0 0 501 316" width="501" height="316"><style></style><path fill-rule="evenodd" d="m223 7c182.9 0.1 189.6 0.1 192.5 1.9 1.6 1 3.9 3.2 5 4.7 1.6 2.5 2 5 2.7 30.9h11.2c7.2 0.1 13.4 0.7 17.6 1.8 3.6 1 9.6 3.2 13.5 5.1 3.9 1.8 9.3 5.3 12 7.8 2.7 2.5 6.4 6.7 8.2 9.4 1.7 2.7 4.1 7.7 5.2 11.2 1.6 4.8 2.1 8.7 2.1 17.7 0 8.2-0.5 13.1-1.8 17.3-1 3.1-3.3 8.1-5.2 11.1-1.9 3-5.8 7.5-8.7 10-2.8 2.5-9.1 6.7-14 9.3-4.8 2.6-14.2 6.7-20.8 9.3-6.6 2.5-13.6 5.2-15.5 6-1.9 0.8-10 3.9-18 7-8 3.1-19.7 8.2-26 11.3-6.3 3.2-12.8 6.8-14.4 8.2-1.6 1.4-6.5 7.2-11 13-4.4 5.8-10.5 13.2-19.1 22.5l94 1 3.3 2.5c1.8 1.4 3.9 4.3 4.8 6.5 1 2.6 1.3 5.3 0.9 7.5-0.4 1.9-2.1 6.2-3.8 9.5-1.8 3.2-7 9.9-11.7 14.8-4.7 4.9-11.2 11.1-14.5 13.7-3.3 2.6-10.1 7.4-15 10.7-4.9 3.3-13.5 8.3-19 11.1-5.5 2.8-14.1 6.4-19 8.1-4.9 1.6-11.9 3.5-15.5 4.1-4.6 0.8-41.8 1-242.5 0.5l-8.5-2.7c-4.7-1.4-11-3.6-14-4.7-3-1.1-10.5-4.8-16.5-8.2-6-3.3-14.6-8.6-19-11.7-4.4-3.2-12.6-10.2-18.3-15.7-5.7-5.5-12-12.4-14-15.4-2-3-4.4-7.7-5.3-10.5-1.2-3.7-1.4-6.2-0.8-9.1 0.5-2.6 2.1-5.3 7.9-11l93.8-1-9.5-10.5c-5.2-5.8-12.6-14.8-16.3-20-3.7-5.2-9-13.1-11.8-17.5-2.7-4.4-7.7-13.2-11-19.5-3.3-6.3-8.4-16.9-11.2-23.5-2.8-6.6-7.1-17.8-9.5-25-2.4-7.2-5.5-17.5-6.9-23-1.4-5.5-3.4-15.3-4.6-21.8-1.4-8.5-2-16.2-2-28.4-0.1-15.2 0.1-17.1 1.9-19.7 1.1-1.5 3.5-3.7 5.3-4.7 3.2-1.8 9-1.9 192.8-1.9zm-25.5 36.4c-3.9 1.9-10.2 5.9-14 8.9-3.9 3-8.8 7.6-11.1 10.3-2.2 2.7-5.4 6.9-7.1 9.4-1.7 2.5-4.6 7.7-6.5 11.5-2 3.8-4.8 10.8-6.2 15.5-1.5 4.7-3.4 12.8-4.2 18-0.7 5.2-1.4 13.3-1.4 18 0 4.7 0.7 12.8 1.4 18 0.8 5.2 2.7 13.3 4.2 18 1.4 4.7 4.2 11.7 6.2 15.5 1.9 3.8 4.8 9 6.5 11.5 1.7 2.5 4.9 6.7 7.1 9.4 2.3 2.7 7.2 7.3 11.1 10.3 3.8 3 10.1 7 14 8.9 3.8 1.8 10.3 4 14.2 4.9 4 0.8 10 1.5 13.3 1.5 3.3 0 9.3-0.7 13.2-1.5 4-0.9 10.4-3.1 14.3-4.9 3.9-1.9 10.1-5.9 14-8.9 3.9-3 8.8-7.6 11.1-10.3 2.2-2.7 5.4-6.9 7.1-9.4 1.7-2.5 4.6-7.7 6.5-11.5 2-3.8 4.8-10.8 6.2-15.5 1.5-4.7 3.4-12.8 4.2-18 0.7-5.2 1.4-13.3 1.4-18 0-4.7-0.7-12.8-1.4-18-0.8-5.2-2.7-13.3-4.2-18-1.4-4.7-4.2-11.7-6.2-15.5-1.9-3.8-4.8-9-6.5-11.5-1.7-2.5-4.9-6.7-7.1-9.4-2.3-2.7-7.2-7.3-11.1-10.3-3.9-3-10.1-7-14-8.9-3.9-1.8-10.3-4-14.3-4.9-3.9-0.8-10.2-1.5-14-1.4-3.7 0.1-9.6 0.7-13.2 1.5-3.6 0.8-9.7 3-13.5 4.8zm216.2 45.9c-2.1 7.2-6.2 19.3-9.2 26.7-2.9 7.4-6.5 16.2-8 19.5-2.5 5.3-2.6 5.9-0.9 5.1 1.1-0.4 9.7-3.7 19.2-7.2 9.4-3.5 21.1-8.1 26-10.2 4.8-2.1 11.1-5.6 14-7.7 2.9-2.2 6-5.6 6.9-7.5 0.9-1.9 1.9-6.2 2.1-9.5 0.4-4.6 0-7.1-1.7-10.7-1.3-3.1-3.6-5.9-6.3-7.9-2.4-1.6-6.5-3.7-9.3-4.5-2.9-0.8-8.7-1.4-13.5-1.3-4.7 0.1-10.1 0.5-12 1-3.5 0.9-3.5 1-7.3 14.2z"/></svg>