<svg version="1.2" xmlns="http://www.w3.org/2000/svg" viewBox="0 0 668 415" class="logo">
	<title>Odak</title>
<path fill="currentColor" fill-rule="evenodd" d="m290.3 14.8c44.4 0.2 68.9 0.8 83.9 2 11.7 1 29.6 2.5 39.8 3.4 10.3 0.9 26.2 2.7 35.4 3.9 9.3 1.1 22.8 3 30 4.2 7.2 1.3 18 3.6 24 5.2 6 1.5 12.9 3.7 15.3 4.7 2.4 0.9 6.2 3.4 8.6 5.5 2.3 2.1 5.2 5.7 6.4 8.1 1.3 2.6 2.5 8.3 3 14.1 0.6 5.5 1.1 10 1.2 10.1 0.3 0.2 8 0.7 17.3 1.4 9.2 0.5 20.6 1.6 25 2.3 4.5 0.6 13.3 2.8 19.7 4.9 6.7 2.1 15.4 6 21.2 9.4 6.8 4 12.9 8.8 19.6 15.5 7.5 7.5 10.7 11.7 13.6 17.5 1.9 4.1 4.6 11.5 5.8 16.3 1.8 7.5 2.1 11.2 1.6 24-0.5 12-1.2 17.5-3.5 25.6-1.7 5.7-5 14.9-7.5 20.2-2.5 5.3-7.2 13.7-10.5 18.4-3.3 4.7-10.5 12.9-15.8 18-5.5 5.1-13.3 11.7-17.5 14.4-4.2 2.8-11.5 7.1-16.3 9.5-4.8 2.4-13.8 6.1-20.2 8.2-6.3 2.1-15.6 4.8-20.7 5.8-7.1 1.5-14.3 2-30 2-11.3 0-24-0.4-35.9-2l-11.4 14.7c-6.3 8-19 22.2-28.3 31.6-9.4 9.2-21.7 20.3-27.4 24.6-5.6 4.1-13.6 9.7-17.7 12.2-4.1 2.4-12.7 7.2-19.3 10.5-6.7 3.2-18.6 8.1-26.5 10.9-7.9 2.7-20.1 6.1-26.9 7.5-6.9 1.4-17 3.3-22.4 4-5.7 0.9-18.6 1.6-30.5 1.6-11.3-0.2-25.4-0.8-31.1-1.6-5.6-0.7-16-2.5-22.9-4-6.8-1.4-19-4.8-27-7.5-7.8-2.8-20.2-7.9-27.1-11.4-7.1-3.5-17.4-9.3-22.7-12.8-5.4-3.6-14.9-10.6-21.3-15.6-6.3-5-16-13.6-21.7-19.1-5.5-5.3-13.8-14.3-18.4-19.6-4.6-5.4-12-15.5-16.6-22.4-4.5-6.8-11.6-19.1-15.6-27.2-4.2-8.1-10.2-21-13.2-28.9-3.2-7.8-8.2-22.6-11.3-32.7-3-10.1-6.3-21.5-7.2-25.1-0.9-3.6-2.7-11.4-3.9-17.4-1.2-6-2.9-16.8-3.8-24-0.9-7.2-2.2-25.3-2.7-40.3-0.7-15.9-0.7-29.8-0.1-33.3 0.5-3.2 1.6-7.4 2.5-9.2 1-1.8 3.8-5.3 6.5-7.7 3.4-3 7.5-5.2 13.5-7.3 4.7-1.5 15.9-4.3 25-6.2 8.9-1.8 23.2-4.2 31.6-5.4 8.4-1.2 20.2-2.8 26.2-3.3 6-0.7 22.1-2.2 35.9-3.3 13.9-1.2 33.7-2.7 44.2-3.3 10.4-0.7 22.8-1.4 27.2-1.6 4.5-0.2 36.4-0.2 70.9 0zm-119.4 22.3c-10.1 0.6-27.5 2.1-38.7 3.3-11.1 1.2-26.8 3.2-34.8 4.4-8.1 1.2-21.6 3.6-30 5.3-8.4 1.8-18.4 4.2-22.4 5.4-3.9 1.3-8.7 3.3-10.7 4.5-1.8 1.2-3.4 3-3.4 4.1-0.2 1 0.7 2.7 1.8 3.7 1.1 1.1 5.7 3.4 10.1 5.2 4.5 1.9 14.5 5.2 22.4 7.1 7.8 2.1 20.8 4.9 28.9 6.4 8 1.5 20.8 3.4 28.3 4.4 7.5 1 22.7 2.5 33.8 3.4 11.1 0.9 33.2 2.1 49.1 2.7 15.9 0.6 42.8 1.1 59.9 1.1 17.1 0 45-0.5 62.2-1.1 17.1-0.6 41.6-1.8 54.5-2.7 12.8-1 28.7-2.5 35.4-3.4 6.6-0.9 19.4-2.8 28.3-4.4 9-1.4 23-4.3 31.1-6.4 8.1-1.9 17.4-4.7 20.7-5.9 3.3-1.3 7.6-3.2 9.5-4.4 2.2-1.3 3.8-3.4 4.2-5.2 0.5-2.2 0-3.7-1.9-5.4-1.4-1.4-6-3.4-10.7-4.6-4.5-1.2-13.3-3.1-19.6-4.3-6.4-1.4-19.1-3.5-28.4-5.1-9.2-1.4-27.7-3.9-40.9-5.3-13.1-1.5-30.8-3.3-39.2-3.8-8.4-0.7-41-1.3-72.5-1.7-31.5-0.2-68.8-0.1-82.8 0.5-14.1 0.4-34 1.4-44.2 2.2zm310.7 63.6c-9.6 2.2-23.9 4.8-31.6 6-7.8 1.2-21.3 3-30 3.8-8.7 1-26.8 2.6-40.3 3.8-13.5 1.2-35.3 2.9-48.5 3.5-15.5 0.8-42.9 1.1-76.9 0.7-29.1-0.3-60.9-1.2-70.8-1.8-10-0.6-26.1-1.9-36-2.8-9.9-1-23.9-2.4-31.1-3.4-7.2-0.8-20.1-2.8-28.9-4.3-8.7-1.4-20.5-3.8-26.1-5.4-5.7-1.4-14.3-3.8-19.1-5.3-4.8-1.6-9-2.8-9.6-2.8-0.4 0-0.8 5-0.8 11.2 0 6.1 0.6 16.2 1.1 22.5 0.7 6.4 2.2 17.2 3.4 24 1.2 6.9 3.9 19.6 6.1 28.4 2.1 8.7 6.5 23.8 9.7 33.8 3.6 10.9 9.2 24.4 14 34.3 4.4 9 11.6 21.8 16 28.3 4.5 6.7 11.2 16 15.2 20.7 3.9 4.8 12.4 14.2 19 20.9 6.6 6.5 15.7 14.9 20.2 18.5 4.5 3.7 12.6 9.6 18 13.2 5.3 3.6 14.3 8.8 19.6 11.5 5.3 2.8 14.7 6.8 20.7 9 6 2.3 16.3 5.4 22.9 7.1 6.7 1.7 17.1 3.8 23.4 4.8 6.4 0.8 17.6 1.9 25.1 2.4 7.7 0.3 19.1 0.1 26.2-0.6 6.8-0.6 17.2-1.9 22.9-2.9 5.6-1 17.4-4.1 26.1-6.9 8.7-2.9 20.5-7.5 26.2-10.2 5.7-2.8 15-8.1 20.7-11.7 5.7-3.7 15-10.5 20.7-15 5.7-4.6 14.8-12.8 20.2-18.1 5.4-5.5 13.6-14.6 18.2-20.3 4.4-5.7 11-14.5 14.4-19.6 3.3-5.2 9.6-16.2 13.7-24.6 4.1-8.4 10-22.5 13-31.6 2.9-8.9 7.4-24.2 9.7-33.8 2.4-9.6 5.5-24.7 7.1-33.8 1.5-8.9 3.8-25.4 5-36.5 1.3-11.1 2.4-21.4 2.6-23.1 0.1-1.6 0-2.9-0.3-2.9-0.4 0.1-3.5 1.3-7.1 2.6-3.6 1.4-14.4 4.2-24 6.4zm54.6 1c-0.3 1.3-1.1 7.3-1.7 13.3-0.7 6-2.2 18-3.4 26.7-1.2 8.7-3.7 22.7-5.5 31.1-1.7 8.4-4.9 21.3-6.9 28.9-2.1 7.5-5.7 19.3-8.1 26.1-2.4 6.9-6.8 18.4-9.7 25.6-3.5 8.3-5 13.6-4.4 14.2 0.6 0.7 9.5 1.1 22.5 1.1 18.9-0.1 22.5-0.3 30.7-2.6 5.1-1.3 13.6-4.2 19.1-6.2 5.4-2.1 13.2-5.8 17.4-8.3 4.3-2.5 10.4-6.6 13.7-9.1 3.2-2.6 8.9-7.7 12.6-11.5 3.7-3.8 8.5-9.9 10.8-13.5 2.3-3.6 5.9-10.5 7.8-15.3 2.1-4.8 4.6-12.1 5.7-16.3 1.2-4.2 2.4-11.4 2.8-15.9 0.5-5.6 0.2-10.9-0.9-16.8-1-4.8-3.3-11.9-5.3-15.9-2.3-4.8-6-9.5-11.1-14.7-5.2-5.2-10.6-9.1-16.4-12.2-4.8-2.5-11.9-5.5-15.8-6.8-4-1.4-11.8-3.1-17.5-4-5.7-0.8-15-1.4-20.7-1.4-5.7 0.1-11.4 0.4-12.8 0.7-1.2 0.2-2.6 1.5-2.9 2.8z"/></svg>
